HIERARCHY
ROOT Hips
{
	OFFSET -32.860001 56.121803 44.745396
	CHANNELS 6 Xposition Yposition Zposition Zrotation Xrotation Yrotation
	JOINT Chest
	{
		OFFSET -0.637402 0.831600 5.390099
		CHANNELS 6 Xposition Yposition Zposition Zrotation Xrotation Yrotation
		JOINT Chest2
		{
			OFFSET 0.000000 0.000000 4.429901
			CHANNELS 6 Xposition Yposition Zposition Zrotation Xrotation Yrotation
			JOINT Neck
			{
				OFFSET 0.000000 0.000000 10.301395
				CHANNELS 6 Xposition Yposition Zposition Zrotation Xrotation Yrotation
				JOINT Head
				{
					OFFSET 0.000000 0.000000 2.173897
					CHANNELS 6 Xposition Yposition Zposition Zrotation Xrotation Yrotation
					End Site
					{
						OFFSET 0.000000 0.000000 8.298004
					}
				}
			}
			JOINT LeftCollar
			{
				OFFSET 2.142401 -0.572701 5.717800
				CHANNELS 6 Xposition Yposition Zposition Zrotation Xrotation Yrotation
				JOINT LeftShoulder
				{
					OFFSET 5.674000 0.000000 0.000000
					CHANNELS 6 Xposition Yposition Zposition Zrotation Xrotation Yrotation
					JOINT LeftElbow
					{
						OFFSET 0.000000 0.000000 -12.238701
						CHANNELS 6 Xposition Yposition Zposition Zrotation Xrotation Yrotation
						JOINT LeftWrist
						{
							OFFSET 0.000000 0.000000 -10.253700
							CHANNELS 6 Xposition Yposition Zposition Zrotation Xrotation Yrotation
							End Site
							{
								OFFSET 0.000000 0.000000 -2.173901
							}
						}
					}
				}
			}
			JOINT RightCollar
			{
				OFFSET -2.882599 -1.580101 6.695801
				CHANNELS 6 Xposition Yposition Zposition Zrotation Xrotation Yrotation
				JOINT RightShoulder
				{
					OFFSET -4.235600 0.000000 0.000000
					CHANNELS 6 Xposition Yposition Zposition Zrotation Xrotation Yrotation
					JOINT RightElbow
					{
						OFFSET 0.000000 0.000000 -10.709900
						CHANNELS 6 Xposition Yposition Zposition Zrotation Xrotation Yrotation
						JOINT RightWrist
						{
							OFFSET 0.000000 0.000000 -11.716801
							CHANNELS 6 Xposition Yposition Zposition Zrotation Xrotation Yrotation
							End Site
							{
								OFFSET 0.000000 0.000000 -2.173901
							}
						}
					}
				}
			}
		}
	}
	JOINT LeftHip
	{
		OFFSET 2.279499 0.210400 -2.475502
		CHANNELS 6 Xposition Yposition Zposition Zrotation Xrotation Yrotation
		JOINT LeftKnee
		{
			OFFSET 0.000000 -0.000004 -20.742800
			CHANNELS 6 Xposition Yposition Zposition Zrotation Xrotation Yrotation
			JOINT LeftAnkle
			{
				OFFSET 0.000000 0.000000 -16.666000
				CHANNELS 6 Xposition Yposition Zposition Zrotation Xrotation Yrotation
				End Site
				{
					OFFSET 0.000000 -8.310898 0.000000
				}
			}
		}
	}
	JOINT RightHip
	{
		OFFSET -1.961899 0.232300 -2.727402
		CHANNELS 6 Xposition Yposition Zposition Zrotation Xrotation Yrotation
		JOINT RightKnee
		{
			OFFSET 0.000000 -0.000004 -20.526800
			CHANNELS 6 Xposition Yposition Zposition Zrotation Xrotation Yrotation
			JOINT RightAnkle
			{
				OFFSET 0.000000 0.000000 -16.867300
				CHANNELS 6 Xposition Yposition Zposition Zrotation Xrotation Yrotation
				End Site
				{
					OFFSET 0.000000 -7.186401 0.000000
				}
			}
		}
	}
}
MOTION
Frames: 6
Frame Time: 0.041667
-33.219395 44.628605 44.731892 1090.998465 1.598520 -1.032234 -0.637403 0.831602 5.390098 -11.616776 4.988039 3.199102 -0.000003 -0.000004 4.429893 11.458141 -0.541373 0.782081 0.000002 -0.000000 10.301397 401.054392 -4.962532 -5.574673 -0.000006 -0.000004 2.173897 -355.815372 2.236819 5.547163 2.142395 -0.572700 5.717796 -2.095384 -0.692159 -3.925421 5.673998 -0.000001 -0.000001 168.066531 167.174139 129.800013 0.000003 0.000005 -12.238698 201.722424 -515.552951 -161.515778 0.000001 0.000001 -10.253699 -559.303209 -6.895345 22.884064 -2.882601 -1.580096 6.695785 -1.568225 -4.353349 25.023083 -4.235604 0.000003 -0.000006 15.266289 -70.904651 101.526732 -0.000006 0.000004 -10.709911 -64.074087 -20.400349 -26.995303 -0.000005 -0.000000 -11.716801 -353.755933 -0.370440 15.206320 2.279498 0.210407 -2.475498 393.583340 -28.044982 4.279264 -0.000002 -0.000006 -20.742802 -75.060862 46.440235 35.332459 0.000000 0.000005 -16.665997 32.674512 6.558550 14.129791 -1.961894 0.232300 -2.727397 -363.888956 -1.123001 12.150901 0.000004 -0.000004 -20.526798 513.171619 160.392540 -178.625074 0.000002 -0.000002 -16.867302 -362.001092 27.993139 -6.893323
-33.013000 44.592300 44.687592 1091.248395 1.614151 -0.825731 -0.637404 0.831596 5.390103 -11.850572 5.004406 3.014892 0.000005 0.000005 4.429900 11.656596 -0.553875 0.791886 0.000005 0.000000 10.301398 400.712391 -5.116101 -5.528451 0.000002 0.000001 2.173898 -355.736579 2.034217 5.579828 2.142394 -0.572695 5.717800 -2.162104 -0.606724 -3.793871 5.673992 -0.000003 -0.000006 168.229007 167.152365 129.835462 -0.000004 0.000001 -12.238698 201.465500 -515.467656 -161.703936 0.000005 -0.000004 -10.253696 -558.979185 -6.938946 22.774339 -2.882602 -1.580093 6.695795 -1.544875 -4.208361 24.881773 -4.235604 0.000003 -0.000003 15.285839 -70.975337 101.567365 0.000001 -0.000002 -10.709894 -64.148003 -20.293834 -27.051517 -0.000000 0.000008 -11.716806 -353.720771 -0.547695 15.236566 2.279497 0.210400 -2.475501 394.285046 -28.655697 4.644264 -0.000004 -0.000006 -20.742800 -77.398747 46.533095 37.413597 0.000003 -0.000000 -16.665997 36.488872 6.145222 15.424490 -1.961902 0.232296 -2.727397 -363.728419 -0.907387 12.170535 0.000002 0.000002 -20.526798 513.141949 160.480445 -178.677161 0.000008 0.000001 -16.867302 -362.408963 28.115878 -6.699928
-32.768200 44.543304 44.646397 1091.348062 1.628945 -0.647788 -0.637405 0.831596 5.390097 -11.931290 4.971891 2.850775 -0.000003 -0.000001 4.429897 11.801113 -0.552400 0.802993 -0.000001 0.000002 10.301390 400.322086 -5.433621 -5.405787 0.000003 -0.000003 2.173904 -355.592052 1.774024 5.578068 2.142399 -0.572707 5.717798 -2.217778 -0.503262 -3.683505 5.673999 0.000007 -0.000002 168.450702 167.115768 129.943502 -0.000003 0.000002 -12.238699 201.145629 -515.413943 -161.962104 0.000007 0.000001 -10.253699 -558.538228 -7.030449 22.659188 -2.882602 -1.580102 6.695794 -1.545555 -4.147341 24.738595 -4.235612 -0.000004 -0.000007 15.305455 -70.988328 101.475233 0.000002 -0.000002 -10.709888 -64.202077 -20.197221 -27.090543 0.000008 0.000001 -11.716803 -353.404424 -0.562688 15.251109 2.279502 0.210400 -2.475502 394.902413 -29.090985 4.871573 -0.000005 -0.000006 -20.742802 -78.397451 46.711216 38.598553 -0.000010 -0.000000 -16.665997 39.514980 6.252915 16.713794 -1.961892 0.232301 -2.727403 -363.605612 -0.740609 12.268288 0.000000 -0.000005 -20.526796 513.041955 160.549402 -178.664963 0.000004 -0.000004 -16.867296 -362.687252 28.337287 -6.435133
-32.485397 44.482201 44.609192 1091.374727 1.645990 -0.441915 -0.637403 0.831599 5.390104 -11.932240 4.899912 2.650971 -0.000003 0.000001 4.429898 11.895204 -0.540923 0.813306 -0.000005 -0.000000 10.301389 399.957464 -5.695226 -5.299129 0.000000 -0.000001 2.173891 -355.452798 1.330462 5.630737 2.142395 -0.572706 5.717797 -2.228265 -0.444740 -3.615341 5.673988 0.000007 0.000002 168.667546 167.035828 130.116593 0.000006 0.000004 -12.238697 200.784148 -515.422030 -162.208441 0.000004 -0.000002 -10.253698 -558.261304 -7.202224 21.199623 -2.882606 -1.580093 6.695790 -1.518714 -4.122338 24.663262 -4.235602 -0.000006 0.000004 14.881625 -70.920586 100.910868 0.000007 0.000002 -10.709887 -64.197515 -20.194276 -27.140744 -0.000000 0.000010 -11.716808 -353.225610 -0.515643 15.199491 2.279501 0.210400 -2.475497 395.248950 -29.384358 4.893613 -0.000001 -0.000003 -20.742798 -78.545065 46.838651 39.235468 -0.000006 -0.000001 -16.666004 41.873943 6.686241 17.675362 -1.961896 0.232302 -2.727401 -363.572609 -0.626362 12.390183 -0.000005 0.000000 -20.526804 512.902838 160.577092 -178.592180 0.000006 0.000002 -16.867302 -362.876503 28.661045 -6.161915
-32.158195 44.407303 44.574398 1091.328281 1.643104 -0.162952 -0.637400 0.831594 5.390095 -11.848609 4.808693 2.364200 -0.000003 0.000003 4.429899 11.962115 -0.522817 0.824002 -0.000006 0.000007 10.301405 399.679994 -6.038998 -5.153271 -0.000002 -0.000003 2.173902 -355.398211 0.944166 5.648112 2.142396 -0.572695 5.717806 -2.203730 -0.420930 -3.398746 5.673993 -0.000003 0.000002 168.776256 166.747061 130.181971 0.000000 0.000008 -12.238697 200.554326 -515.542788 -162.434726 -0.000002 -0.000001 -10.253702 -557.387149 -7.458691 21.044735 -2.882601 -1.580097 6.695795 -1.486458 -4.130801 24.620636 -4.235603 -0.000001 0.000004 14.340844 -70.717094 100.180078 0.000007 0.000008 -10.709898 -64.143734 -20.225934 -27.107832 0.000005 0.000006 -11.716813 -353.210474 -0.474178 15.067754 2.279499 0.210400 -2.475504 395.355528 -29.536842 4.708556 -0.000002 -0.000008 -20.742794 -78.362180 46.847277 39.619728 -0.000000 -0.000001 -16.665998 43.609351 7.332673 18.284147 -1.961897 0.232292 -2.727406 -363.347486 -0.416392 12.495157 0.000004 -0.000003 -20.526804 512.641761 160.642361 -178.549532 -0.000003 -0.000002 -16.867302 -363.087993 29.148208 -5.982174
-31.789398 44.319904 44.545498 1091.276809 1.603292 -0.158305 -0.637403 0.831600 5.390100 -11.779101 4.651255 2.344345 0.000000 0.000001 4.429907 12.031725 -0.496038 0.835710 0.000007 -0.000005 10.301397 399.317010 -6.391322 -5.100119 -0.000004 0.000001 2.173900 -355.339444 0.661385 5.729836 2.142400 -0.572702 5.717797 -2.203121 -0.355501 -3.333114 5.673996 0.000003 -0.000004 168.851224 166.553015 130.375047 0.000009 0.000003 -12.238699 200.277757 -515.770260 -162.656584 0.000008 0.000003 -10.253697 -556.081545 -7.898579 20.859748 -2.882606 -1.580099 6.695789 -1.471107 -4.137537 24.550280 -4.235612 -0.000006 -0.000008 13.903081 -70.487607 99.566318 0.000005 0.000004 -10.709904 -64.061198 -20.240412 -27.053418 -0.000003 0.000011 -11.716816 -353.343909 -0.466044 14.968206 2.279499 0.210402 -2.475495 395.346567 -29.340939 4.692540 0.000000 -0.000004 -20.742802 -78.039105 46.691265 39.896487 -0.000003 0.000003 -16.666000 44.789669 8.074247 18.478956 -1.961900 0.232301 -2.727402 -363.150421 -0.187679 12.949351 0.000000 -0.000007 -20.526796 512.288776 160.703068 -178.480151 0.000005 -0.000003 -16.867298 -363.195992 29.765213 -5.898146
